<mxfile host="app.diagrams.net" modified="2020-11-16T13:34:22.070Z" agent="5.0 (Windows NT 10.0; Win64; x64) AppleWebKit/537.36 (KHTML, like Gecko) Chrome/86.0.4240.193 Safari/537.36" etag="kSWXaZRp5a5cDumWKE_P" version="13.9.3" type="github">
  <diagram id="E2aoWn-OROiJB6ZacZmV" name="第 1 页">
    <mxGraphModel dx="1422" dy="748" grid="1" gridSize="10" guides="1" tooltips="1" connect="1" arrows="1" fold="1" page="1" pageScale="1" pageWidth="827" pageHeight="1169" math="0" shadow="0">
      <root>
        <mxCell id="0" />
        <mxCell id="1" parent="0" />
        <mxCell id="BXRVOBcJJl3QR9TsYk4s-5" style="rounded=0;orthogonalLoop=1;jettySize=auto;html=1;exitX=0.5;exitY=1;exitDx=0;exitDy=0;entryX=0;entryY=0;entryDx=0;entryDy=0;strokeWidth=3;" edge="1" parent="1" source="BXRVOBcJJl3QR9TsYk4s-2" target="BXRVOBcJJl3QR9TsYk4s-4">
          <mxGeometry relative="1" as="geometry" />
        </mxCell>
        <mxCell id="BXRVOBcJJl3QR9TsYk4s-2" value="&lt;font size=&quot;1&quot;&gt;&lt;b style=&quot;font-size: 20px&quot;&gt;JobDetail（任务）&lt;/b&gt;&lt;/font&gt;" style="rounded=1;whiteSpace=wrap;html=1;strokeWidth=2;fillWeight=4;hachureGap=8;hachureAngle=45;fillColor=#1ba1e2;sketch=1;gradientColor=#ffffff;" vertex="1" parent="1">
          <mxGeometry x="140" y="260" width="130" height="60" as="geometry" />
        </mxCell>
        <mxCell id="BXRVOBcJJl3QR9TsYk4s-6" style="edgeStyle=none;rounded=0;orthogonalLoop=1;jettySize=auto;html=1;exitX=0.5;exitY=1;exitDx=0;exitDy=0;entryX=1;entryY=0;entryDx=0;entryDy=0;strokeWidth=3;" edge="1" parent="1" source="BXRVOBcJJl3QR9TsYk4s-3" target="BXRVOBcJJl3QR9TsYk4s-4">
          <mxGeometry relative="1" as="geometry" />
        </mxCell>
        <mxCell id="BXRVOBcJJl3QR9TsYk4s-3" value="&lt;font size=&quot;1&quot;&gt;&lt;b style=&quot;font-size: 20px&quot;&gt;Trigger&lt;br&gt;(触发器)&lt;/b&gt;&lt;/font&gt;" style="rounded=1;whiteSpace=wrap;html=1;strokeWidth=2;fillWeight=4;hachureGap=8;hachureAngle=45;fillColor=#1ba1e2;sketch=1;gradientColor=#ffffff;" vertex="1" parent="1">
          <mxGeometry x="350" y="260" width="160" height="60" as="geometry" />
        </mxCell>
        <mxCell id="BXRVOBcJJl3QR9TsYk4s-14" style="edgeStyle=none;rounded=0;orthogonalLoop=1;jettySize=auto;html=1;exitX=0.5;exitY=1;exitDx=0;exitDy=0;entryX=0.5;entryY=0;entryDx=0;entryDy=0;strokeWidth=2;" edge="1" parent="1" source="BXRVOBcJJl3QR9TsYk4s-4" target="BXRVOBcJJl3QR9TsYk4s-9">
          <mxGeometry relative="1" as="geometry" />
        </mxCell>
        <mxCell id="BXRVOBcJJl3QR9TsYk4s-15" style="edgeStyle=none;rounded=0;orthogonalLoop=1;jettySize=auto;html=1;exitX=0.5;exitY=1;exitDx=0;exitDy=0;entryX=0.5;entryY=0;entryDx=0;entryDy=0;strokeWidth=2;" edge="1" parent="1" source="BXRVOBcJJl3QR9TsYk4s-4" target="BXRVOBcJJl3QR9TsYk4s-10">
          <mxGeometry relative="1" as="geometry" />
        </mxCell>
        <mxCell id="BXRVOBcJJl3QR9TsYk4s-16" style="edgeStyle=none;rounded=0;orthogonalLoop=1;jettySize=auto;html=1;exitX=0.5;exitY=1;exitDx=0;exitDy=0;entryX=0.5;entryY=0;entryDx=0;entryDy=0;strokeWidth=2;" edge="1" parent="1" source="BXRVOBcJJl3QR9TsYk4s-4" target="BXRVOBcJJl3QR9TsYk4s-11">
          <mxGeometry relative="1" as="geometry" />
        </mxCell>
        <mxCell id="BXRVOBcJJl3QR9TsYk4s-17" style="edgeStyle=none;rounded=0;orthogonalLoop=1;jettySize=auto;html=1;exitX=0.5;exitY=1;exitDx=0;exitDy=0;entryX=0.5;entryY=0;entryDx=0;entryDy=0;strokeWidth=2;" edge="1" parent="1" source="BXRVOBcJJl3QR9TsYk4s-4" target="BXRVOBcJJl3QR9TsYk4s-12">
          <mxGeometry relative="1" as="geometry" />
        </mxCell>
        <mxCell id="BXRVOBcJJl3QR9TsYk4s-4" value="&lt;font size=&quot;1&quot;&gt;&lt;b style=&quot;font-size: 20px&quot;&gt;scheduler&lt;br&gt;(调度器)&lt;/b&gt;&lt;/font&gt;" style="rounded=1;whiteSpace=wrap;html=1;strokeWidth=2;fillWeight=4;hachureGap=8;hachureAngle=45;fillColor=#1ba1e2;sketch=1;gradientColor=#ffffff;" vertex="1" parent="1">
          <mxGeometry x="230" y="380" width="160" height="60" as="geometry" />
        </mxCell>
        <mxCell id="BXRVOBcJJl3QR9TsYk4s-9" value="&lt;font style=&quot;font-size: 18px&quot;&gt;&lt;b&gt;start&lt;/b&gt;&lt;/font&gt;" style="ellipse;whiteSpace=wrap;html=1;strokeWidth=2;fillWeight=2;hachureGap=8;fillStyle=dots;sketch=1;fillColor=#e1d5e7;strokeColor=#9673a6;" vertex="1" parent="1">
          <mxGeometry x="90" y="490" width="80" height="40" as="geometry" />
        </mxCell>
        <mxCell id="BXRVOBcJJl3QR9TsYk4s-10" value="&lt;font style=&quot;font-size: 18px&quot;&gt;&lt;b&gt;stop&lt;/b&gt;&lt;/font&gt;" style="ellipse;whiteSpace=wrap;html=1;strokeWidth=2;fillWeight=2;hachureGap=8;fillStyle=dots;sketch=1;fillColor=#e1d5e7;strokeColor=#9673a6;" vertex="1" parent="1">
          <mxGeometry x="200" y="490" width="80" height="40" as="geometry" />
        </mxCell>
        <mxCell id="BXRVOBcJJl3QR9TsYk4s-11" value="&lt;font style=&quot;font-size: 18px&quot;&gt;&lt;b&gt;pause&lt;/b&gt;&lt;/font&gt;" style="ellipse;whiteSpace=wrap;html=1;strokeWidth=2;fillWeight=2;hachureGap=8;fillStyle=dots;sketch=1;fillColor=#e1d5e7;strokeColor=#9673a6;" vertex="1" parent="1">
          <mxGeometry x="310" y="490" width="80" height="40" as="geometry" />
        </mxCell>
        <mxCell id="BXRVOBcJJl3QR9TsYk4s-12" value="&lt;font style=&quot;font-size: 18px&quot;&gt;&lt;b&gt;resume&lt;/b&gt;&lt;/font&gt;" style="ellipse;whiteSpace=wrap;html=1;strokeWidth=2;fillWeight=2;hachureGap=8;fillStyle=dots;sketch=1;fillColor=#e1d5e7;strokeColor=#9673a6;" vertex="1" parent="1">
          <mxGeometry x="420" y="490" width="80" height="40" as="geometry" />
        </mxCell>
        <mxCell id="BXRVOBcJJl3QR9TsYk4s-13" value="&lt;font style=&quot;font-size: 18px&quot;&gt;&lt;b&gt;...&lt;/b&gt;&lt;/font&gt;" style="ellipse;whiteSpace=wrap;html=1;strokeWidth=2;fillWeight=2;hachureGap=8;fillStyle=dots;sketch=1;fillColor=#e1d5e7;strokeColor=#9673a6;" vertex="1" parent="1">
          <mxGeometry x="530" y="490" width="80" height="40" as="geometry" />
        </mxCell>
        <mxCell id="BXRVOBcJJl3QR9TsYk4s-21" style="edgeStyle=none;rounded=0;orthogonalLoop=1;jettySize=auto;html=1;exitX=0;exitY=0.5;exitDx=0;exitDy=0;entryX=1;entryY=0.5;entryDx=0;entryDy=0;strokeWidth=2;" edge="1" parent="1" source="BXRVOBcJJl3QR9TsYk4s-19" target="BXRVOBcJJl3QR9TsYk4s-3">
          <mxGeometry relative="1" as="geometry" />
        </mxCell>
        <mxCell id="BXRVOBcJJl3QR9TsYk4s-19" value="&lt;font style=&quot;font-size: 18px&quot;&gt;&lt;b&gt;SimpleTrigger&lt;/b&gt;&lt;/font&gt;" style="rounded=1;whiteSpace=wrap;html=1;strokeWidth=2;fillWeight=4;hachureGap=8;hachureAngle=45;fillColor=#dae8fc;sketch=1;strokeColor=#6c8ebf;gradientColor=#ffffff;" vertex="1" parent="1">
          <mxGeometry x="590" y="200" width="120" height="60" as="geometry" />
        </mxCell>
        <mxCell id="BXRVOBcJJl3QR9TsYk4s-22" style="edgeStyle=none;rounded=0;orthogonalLoop=1;jettySize=auto;html=1;exitX=0;exitY=0.5;exitDx=0;exitDy=0;strokeWidth=2;" edge="1" parent="1" source="BXRVOBcJJl3QR9TsYk4s-20">
          <mxGeometry relative="1" as="geometry">
            <mxPoint x="510" y="290" as="targetPoint" />
          </mxGeometry>
        </mxCell>
        <mxCell id="BXRVOBcJJl3QR9TsYk4s-20" value="&lt;font style=&quot;font-size: 18px&quot;&gt;&lt;b&gt;CronTrigger&lt;/b&gt;&lt;/font&gt;" style="rounded=1;whiteSpace=wrap;html=1;strokeWidth=2;fillWeight=4;hachureGap=8;hachureAngle=45;fillColor=#dae8fc;sketch=1;strokeColor=#6c8ebf;gradientColor=#ffffff;" vertex="1" parent="1">
          <mxGeometry x="590" y="320" width="120" height="60" as="geometry" />
        </mxCell>
      </root>
    </mxGraphModel>
  </diagram>
</mxfile>
